<?xml version="1.0" standalone="no"?>
<!DOCTYPE svg PUBLIC "-//W3C//DTD SVG 20010904//EN"
 "http://www.w3.org/TR/2001/REC-SVG-20010904/DTD/svg10.dtd">
<svg version="1.0" xmlns="http://www.w3.org/2000/svg"
 width="16.000000pt" height="16.000000pt" viewBox="0 0 16.000000 16.000000"
 preserveAspectRatio="xMidYMid meet">
<metadata>
Created by potrace 1.11, written by Peter Selinger 2001-2013
</metadata>
<g transform="translate(0.000000,16.000000) scale(0.003219,-0.003219)"
fill="#000000" stroke="none">
<path d="M2210 4945 c-399 -49 -765 -181 -1080 -390 -123 -82 -109 -71 -234
-175 -260 -216 -481 -498 -628 -800 -86 -178 -80 -163 -123 -290 -57 -165
-101 -363 -123 -555 -9 -77 -8 -445 1 -510 4 -27 9 -68 12 -90 3 -22 7 -51 10
-65 3 -14 8 -43 11 -65 10 -61 71 -280 106 -375 234 -637 745 -1171 1368
-1428 103 -43 284 -103 365 -121 28 -6 61 -14 75 -17 14 -3 93 -16 175 -28
127 -20 182 -23 365 -20 220 2 263 6 375 28 11 2 42 7 69 11 46 6 284 68 316
82 8 3 20 7 25 8 42 10 241 97 335 147 262 138 490 315 696 539 98 107 294
378 294 408 0 5 4 11 9 13 16 6 148 291 190 411 39 114 74 236 86 306 3 19 8
37 10 41 2 3 7 33 10 65 4 33 9 63 11 66 25 42 24 659 -1 699 -2 3 -6 28 -10
54 -3 27 -7 51 -9 55 -3 4 -7 26 -11 51 -4 25 -8 47 -10 51 -2 3 -7 20 -10 38
-9 49 -63 214 -107 326 -152 384 -452 780 -777 1025 -18 14 -45 35 -60 47 -66
53 -247 160 -376 223 -191 93 -445 178 -605 204 -19 3 -66 11 -105 17 -38 6
-81 13 -95 16 -57 11 -450 10 -550 -2z"/>
</g>
</svg>
